<svg xmlns="http://www.w3.org/2000/svg" width="33.751" height="27" viewBox="0 0 33.751 27">
  <g transform="translate(0 -2)">
    <path d="M33.188,4.5h-19.5a1.694,1.694,0,0,0-1.225.527L1.125,16.989v2.022L12.461,30.973a1.694,1.694,0,0,0,1.225.527h19.5a1.689,1.689,0,0,0,1.688-1.688V6.188A1.689,1.689,0,0,0,33.188,4.5Zm-.563,24.75h-18.7L3.375,18.114v-.228L13.928,6.75h18.7Z" transform="translate(-1.125 -2.5)" fill="#ff0034"/>
    <path d="M-3224.676-2191.992l-3.574-3.939-3.574,3.939a1.246,1.246,0,0,1-.926.41,1.248,1.248,0,0,1-.84-.324,1.251,1.251,0,0,1-.085-1.766l3.738-4.119-3.738-4.119a1.25,1.25,0,0,1,.085-1.765,1.25,1.25,0,0,1,1.766.085l3.574,3.939,3.574-3.939a1.25,1.25,0,0,1,1.766-.085,1.249,1.249,0,0,1,.085,1.765l-3.738,4.119,3.738,4.119a1.25,1.25,0,0,1-.085,1.766,1.248,1.248,0,0,1-.84.324A1.246,1.246,0,0,1-3224.676-2191.992Z" transform="translate(3249.25 2213.291)" fill="#fe1034"/>
  </g>
</svg>
