<svg xmlns="http://www.w3.org/2000/svg" width="22.283" height="16.712" viewBox="0 0 22.283 16.712">
  <g id="person-plus" transform="translate(0 -4.5)">
    <path d="M15.32,21.212a1.364,1.364,0,0,0,1.393-1.393c0-1.393-1.393-5.571-8.356-5.571S0,18.427,0,19.82a1.364,1.364,0,0,0,1.393,1.393ZM1.4,19.9v0Zm.024-.078H15.289l.02,0,.011,0A3.719,3.719,0,0,0,14.162,17.5c-.909-.907-2.618-1.854-5.805-1.854s-4.9.947-5.8,1.855a3.729,3.729,0,0,0-1.159,2.317l.03.006Zm13.891.078v0ZM8.356,11.463A2.785,2.785,0,1,0,5.571,8.678,2.785,2.785,0,0,0,8.356,11.463Zm4.178-2.785A4.178,4.178,0,1,1,8.356,4.5a4.178,4.178,0,0,1,4.178,4.178Zm6.267,0a.7.7,0,0,1,.7.7V12.16a.7.7,0,0,1-.7.7H16.016a.7.7,0,0,1,0-1.393h2.089V9.374A.7.7,0,0,1,18.8,8.678Z" transform="translate(0 0)" fill-rule="evenodd"/>
    <path d="M29.25,16.446a.7.7,0,0,1,.7-.7h2.785a.7.7,0,0,1,0,1.393H30.643v2.089a.7.7,0,0,1-1.393,0Z" transform="translate(-11.145 -4.287)" fill-rule="evenodd"/>
  </g>
</svg>
