
<svg xmlns="http://www.w3.org/2000/svg" width="27.925" height="27.925" viewBox="0 0 27.925 27.925">
  <g transform="translate(1079 194)">
    <g transform="translate(-1079 -194)">
      <path d="M24.434,1.745H3.491A1.745,1.745,0,0,0,1.745,3.491V24.434A1.745,1.745,0,0,0,3.491,26.18H24.434a1.745,1.745,0,0,0,1.745-1.745V3.491A1.745,1.745,0,0,0,24.434,1.745ZM3.491,0A3.491,3.491,0,0,0,0,3.491V24.434a3.491,3.491,0,0,0,3.491,3.491H24.434a3.491,3.491,0,0,0,3.491-3.491V3.491A3.491,3.491,0,0,0,24.434,0Z" fill="#fff" fill-rule="evenodd"/>
    </g>
    <g transform="translate(-1074.355 -171.505)">
      <path d="M7.875,17.748a.984.984,0,0,1,1.067-.873H26.006a.984.984,0,0,1,1.067.873.984.984,0,0,1-1.067.873H8.942A.984.984,0,0,1,7.875,17.748Z" transform="translate(-7.875 -16.875)" fill="#fff" fill-rule="evenodd"/>
    </g>
  </g>
</svg>
