<svg xmlns="http://www.w3.org/2000/svg" width="28.925" height="27.925" viewBox="0 0 28.925 27.925">
  <g  transform="translate(1079 194)">
    <g transform="translate(-1079 -194)">
      <path d="M25.309,1.745H3.616A1.777,1.777,0,0,0,1.808,3.491V24.434A1.777,1.777,0,0,0,3.616,26.18H25.309a1.777,1.777,0,0,0,1.808-1.745V3.491A1.777,1.777,0,0,0,25.309,1.745ZM3.616,0A3.555,3.555,0,0,0,0,3.491V24.434a3.555,3.555,0,0,0,3.616,3.491H25.309a3.555,3.555,0,0,0,3.616-3.491V3.491A3.555,3.555,0,0,0,25.309,0Z" transform="translate(0)" fill="#fff" fill-rule="evenodd"/>
    </g>
    <g transform="translate(-1073.355 -171.505)">
      <path id="M7.875,17.748a.984.984,0,0,1,1.067-.873H26.006a.984.984,0,0,1,1.067.873.984.984,0,0,1-1.067.873H8.942A.984.984,0,0,1,7.875,17.748Z" transform="translate(-7.875 -16.875)" fill="#fff" fill-rule="evenodd"/>
    </g>
  </g>
</svg>
