<svg xmlns="http://www.w3.org/2000/svg" width="27.925" height="27.925" viewBox="0 0 27.925 27.925">
  <path d="M7.854,0a.873.873,0,0,1,.873.873V7.854a.873.873,0,0,1-.873.873H.873a.873.873,0,0,1,0-1.745H6.981V.873A.873.873,0,0,1,7.854,0Z" transform="translate(2.855 13.963) rotate(-45)" fill="#fff" fill-rule="evenodd"/>
  <path d="M0,.873A.873.873,0,0,1,.873,0H7.854a.873.873,0,1,1,0,1.745H1.745V7.854A.873.873,0,0,1,0,7.854Z" transform="translate(12.728 13.963) rotate(-45)" fill="#fff" fill-rule="evenodd"/>
  <path d="M24.434,1.745H3.491A1.745,1.745,0,0,0,1.745,3.491V24.434A1.745,1.745,0,0,0,3.491,26.18H24.434a1.745,1.745,0,0,0,1.745-1.745V3.491A1.745,1.745,0,0,0,24.434,1.745ZM3.491,0A3.491,3.491,0,0,0,0,3.491V24.434a3.491,3.491,0,0,0,3.491,3.491H24.434a3.491,3.491,0,0,0,3.491-3.491V3.491A3.491,3.491,0,0,0,24.434,0Z" fill="#fff" fill-rule="evenodd"/>
</svg>
