<svg xmlns="http://www.w3.org/2000/svg" width="27.925" height="27.925" viewBox="0 0 27.925 27.925">
  <g transform="translate(1135 194)">
    <g transform="translate(-1135 -194)">
      <g >
        <path d="M24.434,1.745H3.491A1.745,1.745,0,0,0,1.745,3.491V24.434A1.745,1.745,0,0,0,3.491,26.18H24.434a1.745,1.745,0,0,0,1.745-1.745V3.491A1.745,1.745,0,0,0,24.434,1.745ZM3.491,0A3.491,3.491,0,0,0,0,3.491V24.434a3.491,3.491,0,0,0,3.491,3.491H24.434a3.491,3.491,0,0,0,3.491-3.491V3.491A3.491,3.491,0,0,0,24.434,0Z" fill="#fff" fill-rule="evenodd"/>
      </g>
    </g>
    <g transform="translate(-1121.822 -180.668)">
      <g transform="translate(0 9.939)">
        <path id="M7.875,17.748c0-.482.294-.873.658-.873H19.056c.363,0,.658.391.658.873s-.294.873-.658.873H8.533C8.169,18.62,7.875,18.23,7.875,17.748Z" transform="translate(-7.875 -16.875)" fill="#fff" fill-rule="evenodd"/>
      </g>
      <g data-name="dash" transform="translate(11.839) rotate(90)">
        <path d="M0,.873C0,.391.291,0,.649,0H11.035c.359,0,.649.391.649.873s-.291.873-.649.873H.649C.291,1.745,0,1.355,0,.873Z" fill="#fff" fill-rule="evenodd"/>
      </g>
    </g>
    <g transform="translate(-1120.068 -179.262) rotate(180)">
      <g transform="translate(0 9.939)">
        <path d="M0,.873C0,.391.294,0,.658,0H11.181c.363,0,.658.391.658.873s-.294.873-.658.873H.658C.294,1.745,0,1.355,0,.873Z" fill="#fff" fill-rule="evenodd"/>
      </g>
      <g transform="translate(11.839) rotate(90)">
        <path d="M0,.873C0,.391.291,0,.649,0H11.035c.359,0,.649.391.649.873s-.291.873-.649.873H.649C.291,1.745,0,1.355,0,.873Z" fill="#fff" fill-rule="evenodd"/>
      </g>
    </g>
  </g>
</svg>
